<?xml version="1.0" encoding="iso-8859-1"?>
<!-- Generator: Adobe Illustrator 18.0.0, SVG Export Plug-In . SVG Version: 6.00 Build 0)  -->
<!DOCTYPE svg PUBLIC "-//W3C//DTD SVG 1.1//EN" "http://www.w3.org/Graphics/SVG/1.1/DTD/svg11.dtd">
<svg xmlns="http://www.w3.org/2000/svg" xmlns:xlink="http://www.w3.org/1999/xlink" version="1.1" id="Capa_1" x="0px" y="0px" viewBox="0 0 481.005 481.005" style="enable-background:new 0 0 481.005 481.005;" xml:space="preserve" width="512px" height="512px">
<g>
	<path d="M451.378,184.133h-16.952l36.334-36.334c5.596-5.596,8.678-13.036,8.678-20.95c0-7.607-2.855-14.772-8.047-20.287   c5.191-5.515,8.047-12.68,8.047-20.287c0-7.914-3.082-15.354-8.678-20.949l-35.166-35.164c-5.595-5.597-13.035-8.679-20.948-8.679   c-7.913,0-15.354,3.082-20.949,8.678L239.725,184.133H29.627C13.291,184.133,0,197.424,0,213.76v216.135   c0,16.337,13.291,29.628,29.627,29.628h421.751c16.336,0,29.627-13.291,29.627-29.628V213.76   C481.005,197.424,467.714,184.133,451.378,184.133z M455.91,132.949l-51.183,51.184h-10.876l62.684-62.685   C459.257,124.833,459.051,129.81,455.91,132.949z M195.614,267.551l37.757,37.756l-52.941,15.186L195.614,267.551z    M253.024,295.261l-47.365-47.364L363.928,89.629l47.364,47.363L253.024,295.261z M408.546,45.01c1.629-1.63,3.796-2.527,6.1-2.527   c2.304,0,4.47,0.898,6.099,2.527l35.167,35.165c1.629,1.629,2.526,3.795,2.526,6.1c0,2.304-0.897,4.471-2.527,6.1l-29.768,29.769   l-47.364-47.364L408.546,45.01z M460.005,429.895c0,4.758-3.87,8.628-8.627,8.628H29.627c-4.757,0-8.627-3.87-8.627-8.628V213.76   c0-4.757,3.87-8.627,8.627-8.627h189.098l-36.016,36.016c-1.259,1.26-2.178,2.818-2.668,4.53l-25.021,87.235   c-1.053,3.669-0.031,7.62,2.668,10.319c1.997,1.997,4.679,3.075,7.426,3.075c0.966,0,1.939-0.133,2.894-0.407l87.235-25.021   c1.712-0.49,3.271-1.409,4.53-2.668l113.078-113.079h78.526c4.757,0,8.627,3.87,8.627,8.627V429.895z" fill="#FFFFFF"/>
	<path d="M58.317,269.208h63.119c5.799,0,10.5-4.701,10.5-10.5c0-5.799-4.701-10.5-10.5-10.5H58.317c-5.799,0-10.5,4.701-10.5,10.5   C47.817,264.507,52.519,269.208,58.317,269.208z" fill="#FFFFFF"/>
	<path d="M417.905,377.315H58.317c-5.799,0-10.5,4.701-10.5,10.5c0,5.799,4.701,10.5,10.5,10.5h359.588   c5.799,0,10.5-4.701,10.5-10.5C428.405,382.017,423.704,377.315,417.905,377.315z" fill="#FFFFFF"/>
	<path d="M417.905,312.522h-73.639c-5.799,0-10.5,4.701-10.5,10.5c0,5.799,4.701,10.5,10.5,10.5h73.639   c5.799,0,10.5-4.701,10.5-10.5C428.405,317.224,423.704,312.522,417.905,312.522z" fill="#FFFFFF"/>
</g>
<g>
</g>
<g>
</g>
<g>
</g>
<g>
</g>
<g>
</g>
<g>
</g>
<g>
</g>
<g>
</g>
<g>
</g>
<g>
</g>
<g>
</g>
<g>
</g>
<g>
</g>
<g>
</g>
<g>
</g>
</svg>
