<?xml version="1.0" standalone="no"?>
<!DOCTYPE svg PUBLIC "-//W3C//DTD SVG 20010904//EN"
 "http://www.w3.org/TR/2001/REC-SVG-20010904/DTD/svg10.dtd">
<svg version="1.0" xmlns="http://www.w3.org/2000/svg"
 width="376.000000pt" height="376.000000pt" viewBox="0 0 376.000000 300.000000"
 preserveAspectRatio="xMidYMid meet">
<metadata>
Created by potrace 1.16, written by Peter Selinger 2001-2019
</metadata>
<g transform="translate(0.000000,376.000000) scale(0.100000,-0.100000)"
fill="#034563" stroke="none">
<path d="M1698 3294 c-473 -73 -855 -447 -944 -923 -20 -109 -20 -303 0 -413
42 -223 152 -433 311 -593 164 -165 356 -269 590 -321 111 -24 340 -24 455 0
486 103 845 491 911 983 21 155 0 351 -52 504 -31 92 -111 244 -168 320 -62
82 -189 203 -270 258 -239 163 -544 231 -833 185z m212 -1089 l754 -754 -29
-31 -29 -31 -758 758 -757 757 26 28 c15 15 29 28 32 28 4 0 346 -340 761
-755z m198 586 c9 -5 35 -45 56 -89 l39 -81 178 -3 c198 -3 212 -8 254 -79 19
-33 20 -52 20 -459 0 -450 -1 -465 -47 -494 -14 -8 -22 -6 -40 11 -20 21 -21
23 -5 41 15 17 17 59 17 439 0 399 -1 422 -19 444 -19 23 -24 24 -211 29
l-192 5 -43 84 -42 85 -189 -1 -189 -1 -43 -82 -44 -82 -27 26 -28 27 40 77
c63 122 38 112 284 112 118 0 222 -4 231 -9z m-748 -206 l34 -35 -78 0 c-73 0
-79 -2 -107 -30 l-30 -29 3 -421 3 -422 24 -19 c22 -18 47 -19 574 -19 l551 0
33 -32 c18 -18 33 -36 33 -40 0 -5 -264 -7 -587 -6 -653 3 -625 0 -675 70
l-23 33 -3 433 c-3 427 -2 434 19 471 29 51 81 80 145 81 44 0 54 -4 84 -35z
m676 -195 c78 -38 145 -111 174 -188 18 -47 21 -73 18 -144 -2 -48 -7 -91 -11
-94 -4 -4 -18 3 -32 16 -21 20 -25 32 -25 85 0 118 -55 211 -154 262 -40 21
-66 27 -123 27 -61 1 -76 5 -97 25 -30 28 -29 30 16 42 63 16 167 2 234 -31z
m-380 -101 c15 -16 16 -23 6 -37 -66 -90 -76 -210 -27 -301 81 -148 265 -197
400 -105 l38 25 24 -23 24 -23 -29 -26 c-83 -74 -252 -91 -364 -36 -185 91
-253 333 -141 505 31 47 42 51 69 21z"/>
</g>
</svg>
