<?xml version="1.0" encoding="utf-8"?>
<!-- Generator: Adobe Illustrator 27.9.0, SVG Export Plug-In . SVG Version: 6.00 Build 0)  -->
<svg version="1.1" id="Calque_1" xmlns="http://www.w3.org/2000/svg" xmlns:xlink="http://www.w3.org/1999/xlink" x="0px" y="0px"
	 viewBox="0 0 510.2 204.1" style="enable-background:new 0 0 510.2 204.1;" xml:space="preserve">
<style type="text/css">
	.st0{fill:#FEC700;}
	.st1{fill:#3363AC;}
	.st2{fill:#FFFFFF;}
</style>
<g>
	<g>
		<path class="st0" d="M82.2,62.8c-0.6-0.3-1.1-0.6-1.5-1.1c-0.4-0.4-0.7-0.9-0.8-1.5c-0.2-0.5-0.2-1.1-0.2-1.6c0-1.1,0.4-2,1.1-2.8
			c0.7-0.8,1.8-1.1,3.2-1.1c0.6,0,1.2,0.1,1.7,0.2c0.6,0.1,1,0.2,1.4,0.3l0.6-2.9c-1.2-0.4-2.4-0.6-3.9-0.6c-2.5,0-4.4,0.7-5.7,2
			c-1.3,1.3-1.9,3.1-1.9,5.1c0,0.7,0.1,1.4,0.3,2.1c0.2,0.7,0.5,1.4,1,2.1h-3.1v3.2h14v-3.2h-3.7C83.7,63.2,82.9,63,82.2,62.8z"/>
		<path class="st0" d="M79.6,86.1c0,2.7-0.6,4.6-1.9,5.7c-1.3,1.2-3.2,1.7-5.8,1.7h-9.2h-9.2h-9.2c0,0,0,0,0,0c0,0,0,0,0,0H35h-6
			V71.1H24v25.3c0,2.7-0.4,4.7-1.3,5.9c-0.9,1.2-2.3,1.8-4.3,1.8c-0.5,0-0.9,0-1.4-0.1c-0.5,0-0.9-0.1-1.4-0.2l-0.7,4.2
			c0.6,0.1,1.2,0.2,1.9,0.3c0.7,0.1,1.3,0.1,1.9,0.1c3.4,0,5.9-0.9,7.5-2.7c1.7-1.8,2.6-4.5,2.9-8.2h6.8h0h9.2h9.2h0h9.2h0h9.2
			c0,0,0,0,0,0c8,0,12-3.6,12-10.7V71.1h-5V86.1z"/>
		<rect x="94.9" y="52" class="st0" width="5.1" height="45.7"/>
		<path class="st0" d="M115.9,65c0.8,0,1.5-0.3,2.1-0.8c0.5-0.6,0.8-1.3,0.8-2.1c0-0.8-0.3-1.5-0.8-2.1c-0.5-0.6-1.2-0.8-2.1-0.8
			c-0.8,0-1.5,0.3-2.1,0.8c-0.6,0.6-0.8,1.3-0.8,2.1c0,0.8,0.3,1.5,0.8,2.1C114.4,64.8,115.1,65,115.9,65z"/>
		<path class="st0" d="M136.5,102.6c-0.8,0-1.5,0.3-2.1,0.8s-0.8,1.3-0.8,2.1c0,0.8,0.3,1.5,0.8,2.1s1.3,0.8,2.1,0.8
			s1.5-0.3,2.1-0.8s0.8-1.3,0.8-2.1c0-0.8-0.3-1.5-0.8-2.1S137.3,102.6,136.5,102.6z"/>
		<path class="st0" d="M164.5,86.1c0,2.7-0.6,4.6-1.9,5.7c-1.3,1.2-3.2,1.7-5.8,1.7c-0.5,0-1.1-0.1-1.7-0.2
			c-0.6-0.2-1.1-0.4-1.7-0.8c-0.5-0.4-1-0.8-1.5-1.3c-0.4-0.5-0.8-1.2-1-1.9c0.3-1.4,0.4-3.1,0.4-5.2c0-8.9-5.2-13.4-15.6-13.4
			c-1,0-2.2,0.1-3.6,0.2c-1.5,0.2-3.1,0.6-5,1.3l1.1,3.9c1.2-0.5,2.5-0.8,3.7-0.9c1.2-0.1,2.2-0.2,3.1-0.2c2.1,0,3.9,0.2,5.3,0.7
			s2.5,1,3.4,1.8c0.8,0.8,1.5,1.7,1.8,2.8c0.4,1.1,0.5,2.3,0.5,3.7c0,1.8-0.1,3.3-0.3,4.5c-0.2,1.2-0.7,2.1-1.3,2.9
			c-0.6,0.7-1.5,1.3-2.6,1.6c-1.1,0.3-2.6,0.5-4.3,0.5h-13.1h-6V71.1h-5.1v25.3c0,2.7-0.4,4.7-1.3,5.9c-0.9,1.2-2.3,1.8-4.3,1.8
			c-0.5,0-0.9,0-1.4-0.1c-0.5,0-0.9-0.1-1.4-0.2l-0.7,4.2c0.6,0.1,1.2,0.2,1.9,0.3c0.7,0.1,1.3,0.1,1.9,0.1c3.4,0,5.9-0.9,7.5-2.7
			c1.7-1.8,2.6-4.5,2.9-8.2h6.8h0h13.5c2.7,0,4.9-0.3,6.6-0.9c1.7-0.6,3.1-1.7,4-3.1c1,1.4,2.2,2.4,3.7,3.1c1.2,0.5,2.5,0.8,3.7,0.9
			c0.2,0,0.5,0,0.8,0c8,0,12.1-3.6,12.1-10.7V52h-5.1V86.1z"/>
		<rect x="180.1" y="52" class="st0" width="5.1" height="45.7"/>
		<path class="st0" d="M278.9,102.7c-0.8,0-1.5,0.3-2.1,0.8c-0.6,0.6-0.8,1.3-0.8,2.1c0,0.8,0.3,1.5,0.8,2.1s1.3,0.8,2.1,0.8
			c0.8,0,1.5-0.3,2.1-0.8c0.5-0.6,0.8-1.3,0.8-2.1c0-0.8-0.3-1.5-0.8-2.1C280.4,103,279.7,102.7,278.9,102.7z"/>
		<path class="st0" d="M271.1,102.7c-0.8,0-1.5,0.3-2.1,0.8c-0.6,0.6-0.8,1.3-0.8,2.1c0,0.8,0.3,1.5,0.8,2.1s1.3,0.8,2.1,0.8
			c0.8,0,1.5-0.3,2.1-0.8c0.5-0.6,0.8-1.3,0.8-2.1c0-0.8-0.3-1.5-0.8-2.1C272.7,103,272,102.7,271.1,102.7z"/>
		<path class="st0" d="M279.8,87V71.1h-5v14.9c0,2.7-0.6,4.6-1.9,5.7c-1.3,1.2-3.2,1.7-5.8,1.7h-9.2h-9.2c0,0,0,0,0,0c0,0,0,0,0,0
			h-8.8c-0.1,0-0.3,0-0.4,0c-0.9,0-1.7-0.2-2.4-0.5c-0.7-0.3-1.4-0.8-1.9-1.3c-0.5-0.6-0.9-1.2-1.2-1.9c-0.3-0.7-0.4-1.5-0.4-2.2
			v-4.1c0-3.9-1.2-7-3.5-9.1c-2.3-2.1-5.9-3.2-10.7-3.2h-6.2v4.2h4.5c2.2,0,3.9,0.2,5.3,0.6c1.4,0.4,2.5,1,3.3,1.9
			c0.8,0.8,1.4,1.8,1.7,3c0.3,1.2,0.5,2.4,0.5,3.9v1.4c0,1.3-0.1,2.5-0.3,3.4c-0.2,0.9-0.6,1.7-1.2,2.3c-0.5,0.6-1.3,1-2.2,1.3
			c-0.9,0.3-2.1,0.4-3.4,0.4h-12.1v4.2h13.2c2.4,0,4.4-0.3,6-1c1.5-0.7,2.7-1.6,3.5-2.9c0.5,0.7,1,1.3,1.7,1.8
			c0.7,0.5,1.4,0.9,2.1,1.2c0.7,0.3,1.5,0.5,2.3,0.7c0.4,0.1,0.9,0.1,1.3,0.2c0.2,0,0.5,0,0.8,0h9.2h9.2h0h9.2c0,0,0,0,0,0
			C275.8,97.7,279.8,94.1,279.8,87z"/>
		<path class="st0" d="M315.9,103.4c-0.5-0.6-1.2-0.8-2.1-0.8c-0.8,0-1.5,0.3-2.1,0.8s-0.8,1.3-0.8,2.1s0.3,1.5,0.8,2.1
			s1.3,0.8,2.1,0.8c0.8,0,1.5-0.3,2.1-0.8s0.8-1.3,0.8-2.1S316.5,103.9,315.9,103.4z"/>
		<path class="st0" d="M316.6,87V71.1h-5v14.9c0,2.7-0.6,4.6-1.9,5.7c-1.3,1.2-3.2,1.7-5.8,1.7h-6V71.1h-5.1v25.3
			c0,2.7-0.4,4.7-1.3,5.9c-0.9,1.2-2.3,1.8-4.3,1.8c-0.5,0-0.9,0-1.4-0.1c-0.5,0-0.9-0.1-1.4-0.2l-0.7,4.2c0.6,0.1,1.2,0.2,1.9,0.3
			c0.7,0.1,1.3,0.1,1.9,0.1c3.4,0,5.9-0.9,7.5-2.7c1.7-1.8,2.6-4.5,2.9-8.2h6.8c0,0,0,0,0,0C312.6,97.7,316.6,94.1,316.6,87z"/>
	</g>
	<g>
		<path class="st0" d="M19.7,150.8v-10.7h-6.5v-2.5h6.5v-9.4h2.8v9.4H29v2.5h-6.5v10.7H19.7z"/>
		<path class="st0" d="M37.5,151.1c-1.8,0-3.2-0.5-4.4-1.6c-1.1-1.1-1.7-2.5-1.7-4.5s0.6-3.4,1.7-4.5c1.1-1.1,2.6-1.6,4.4-1.6
			s3.2,0.5,4.4,1.6c1.1,1.1,1.7,2.6,1.7,4.5s-0.6,3.4-1.7,4.5C40.7,150.6,39.2,151.1,37.5,151.1z M37.5,148.7c1.1,0,1.9-0.3,2.4-1
			c0.6-0.6,0.8-1.5,0.8-2.6c0-1.1-0.3-2-0.8-2.6s-1.4-1-2.4-1c-1.1,0-1.9,0.3-2.5,1c-0.5,0.7-0.8,1.5-0.8,2.6c0,1.1,0.3,2,0.9,2.6
			C35.6,148.4,36.4,148.7,37.5,148.7z"/>
		<path class="st0" d="M48.2,150.8v-22.6H51v22.6H48.2z"/>
		<path class="st0" d="M61.8,151.1c-1.8,0-3.2-0.5-4.4-1.6c-1.1-1.1-1.7-2.5-1.7-4.5s0.6-3.4,1.7-4.5c1.1-1.1,2.6-1.6,4.4-1.6
			s3.2,0.5,4.4,1.6c1.1,1.1,1.7,2.6,1.7,4.5s-0.6,3.4-1.7,4.5C65,150.6,63.5,151.1,61.8,151.1z M61.8,148.7c1.1,0,1.9-0.3,2.4-1
			c0.6-0.6,0.8-1.5,0.8-2.6c0-1.1-0.3-2-0.8-2.6s-1.4-1-2.4-1c-1.1,0-1.9,0.3-2.5,1c-0.5,0.7-0.8,1.5-0.8,2.6c0,1.1,0.3,2,0.9,2.6
			C59.9,148.4,60.7,148.7,61.8,148.7z"/>
		<path class="st0" d="M71,150.8c0.4-2.6,1.4-4.7,2.9-6.3c1.6-1.6,3.6-2.6,6.1-2.9v-4.2c-2.5-0.3-4.5-1.2-6.1-2.9
			c-1.6-1.6-2.6-3.8-2.9-6.3h2.9c0.3,1.9,1,3.4,2,4.6c1,1.2,2.4,1.9,4.2,2.1v-6.7h2.8v6.7c1.8-0.3,3.2-1,4.2-2.1
			c1-1.2,1.7-2.7,2-4.5h2.9c-0.4,2.6-1.4,4.7-3,6.3c-1.6,1.6-3.6,2.6-6.1,2.9v4.2c2.5,0.3,4.5,1.3,6.1,2.9c1.6,1.6,2.6,3.7,3,6.3
			h-2.9c-0.3-1.9-1-3.4-2-4.5c-1-1.2-2.4-1.9-4.2-2.1v6.7h-2.8v-6.7c-1.8,0.2-3.2,0.9-4.2,2.1c-1,1.2-1.7,2.7-2,4.6H71z"/>
		<path class="st0" d="M101.2,151.1c-1.8,0-3.2-0.5-4.4-1.6c-1.1-1.1-1.7-2.5-1.7-4.5s0.6-3.4,1.7-4.5c1.1-1.1,2.6-1.6,4.4-1.6
			s3.2,0.5,4.4,1.6c1.1,1.1,1.7,2.6,1.7,4.5s-0.6,3.4-1.7,4.5C104.4,150.6,103,151.1,101.2,151.1z M101.2,148.7c1.1,0,1.9-0.3,2.4-1
			c0.6-0.6,0.8-1.5,0.8-2.6c0-1.1-0.3-2-0.8-2.6s-1.4-1-2.4-1c-1.1,0-1.9,0.3-2.5,1c-0.5,0.7-0.8,1.5-0.8,2.6c0,1.1,0.3,2,0.9,2.6
			C99.3,148.4,100.1,148.7,101.2,148.7z"/>
		<path class="st0" d="M111.9,150.8v-22.6h2.8v22.6H111.9z"/>
		<path class="st0" d="M125.1,150.8v-10.7h-6.5v-2.5h6.5v-9.4h2.8v9.4h6.5v2.5h-6.5v10.7H125.1z"/>
		<path class="st0" d="M146.5,150.8v-22.6h2.8v22.6H146.5z"/>
		<path class="st0" d="M163.7,150.8v-22.6h2.8v9.8c0,1.1,0,2,0,2.8c0,0.8-0.1,1.5-0.2,2l0.2,0.1c0.3-0.7,0.6-1.4,0.9-1.9
			c0.3-0.5,0.6-1.1,1-1.8l4.3-6.8v-4.1h2.8v22.6h-2.8V141c0-1.1,0-2,0-2.8c0-0.8,0.1-1.5,0.2-2l-0.2-0.1c-0.2,0.7-0.5,1.3-0.8,1.8
			c-0.3,0.6-0.7,1.2-1.1,1.9l-4.2,6.7v4.1H163.7z"/>
		<path class="st0" d="M180.1,140.8v-2.5h14.6v2.5H180.1z M187.4,136.3c-1.6,0-2.8-0.4-3.7-1.1c-0.9-0.8-1.3-1.8-1.3-3
			c0-1.3,0.4-2.3,1.3-3.1c0.9-0.8,2.1-1.1,3.7-1.1c1.6,0,2.8,0.4,3.7,1.1c0.9,0.8,1.3,1.8,1.3,3.1c0,1.3-0.4,2.3-1.3,3
			C190.2,135.9,189,136.3,187.4,136.3z M187.4,151.1c-1.6,0-2.8-0.4-3.7-1.1c-0.9-0.8-1.3-1.8-1.3-3c0-1.3,0.4-2.3,1.3-3.1
			c0.9-0.8,2.1-1.1,3.7-1.1c1.6,0,2.8,0.4,3.7,1.1c0.9,0.8,1.3,1.8,1.3,3.1c0,1.3-0.4,2.3-1.3,3C190.2,150.8,189,151.1,187.4,151.1z
			 M187.4,133.9c0.7,0,1.3-0.2,1.6-0.5c0.4-0.3,0.5-0.8,0.5-1.3s-0.2-1-0.5-1.3c-0.4-0.3-0.9-0.5-1.6-0.5c-0.7,0-1.3,0.2-1.6,0.5
			c-0.4,0.3-0.5,0.8-0.5,1.3s0.2,1,0.5,1.3C186.1,133.7,186.7,133.9,187.4,133.9z M187.4,148.8c0.7,0,1.3-0.2,1.6-0.5
			c0.4-0.3,0.5-0.8,0.5-1.3s-0.2-1-0.5-1.3c-0.4-0.3-0.9-0.5-1.6-0.5c-0.7,0-1.3,0.2-1.6,0.5c-0.4,0.3-0.5,0.8-0.5,1.3
			s0.2,1,0.6,1.3C186.2,148.6,186.7,148.8,187.4,148.8z"/>
		<path class="st0" d="M197.9,150.8c0.4-2.6,1.4-4.7,2.9-6.3c1.6-1.6,3.6-2.6,6.1-2.9v-4.2c-2.5-0.3-4.5-1.2-6.1-2.9
			c-1.6-1.6-2.6-3.8-2.9-6.3h2.9c0.3,1.9,1,3.4,2,4.6c1,1.2,2.4,1.9,4.2,2.1v-6.7h2.8v6.7c1.8-0.3,3.2-1,4.2-2.1
			c1-1.2,1.7-2.7,2-4.5h2.9c-0.4,2.6-1.4,4.7-3,6.3c-1.6,1.6-3.6,2.6-6.1,2.9v4.2c2.5,0.3,4.5,1.3,6.1,2.9c1.6,1.6,2.6,3.7,3,6.3
			H216c-0.3-1.9-1-3.4-2-4.5c-1-1.2-2.4-1.9-4.2-2.1v6.7h-2.8v-6.7c-1.8,0.2-3.2,0.9-4.2,2.1c-1,1.2-1.7,2.7-2,4.6H197.9z"/>
		<path class="st0" d="M222,150.8c0.4-2.6,1.4-4.7,2.9-6.3c1.6-1.6,3.6-2.6,6.1-2.9v-4.2c-2.5-0.3-4.5-1.2-6.1-2.9
			c-1.6-1.6-2.6-3.8-2.9-6.3h2.9c0.3,1.9,1,3.4,2,4.6c1,1.2,2.4,1.9,4.2,2.1v-6.7h2.8v6.7c1.8-0.3,3.2-1,4.2-2.1
			c1-1.2,1.7-2.7,2-4.5h2.9c-0.4,2.6-1.4,4.7-3,6.3c-1.6,1.6-3.6,2.6-6.1,2.9v4.2c2.5,0.3,4.5,1.3,6.1,2.9c1.6,1.6,2.6,3.7,3,6.3
			h-2.9c-0.3-1.9-1-3.4-2-4.5c-1-1.2-2.4-1.9-4.2-2.1v6.7H231v-6.7c-1.8,0.2-3.2,0.9-4.2,2.1c-1,1.2-1.7,2.7-2,4.6H222z"/>
		<path class="st0" d="M252.2,151.1c-1.8,0-3.2-0.5-4.4-1.6c-1.1-1.1-1.7-2.5-1.7-4.5s0.6-3.4,1.7-4.5c1.1-1.1,2.6-1.6,4.4-1.6
			s3.2,0.5,4.4,1.6c1.1,1.1,1.7,2.6,1.7,4.5s-0.6,3.4-1.7,4.5C255.4,150.6,253.9,151.1,252.2,151.1z M252.2,148.7
			c1.1,0,1.9-0.3,2.4-1c0.6-0.6,0.8-1.5,0.8-2.6c0-1.1-0.3-2-0.8-2.6c-0.6-0.7-1.4-1-2.4-1c-1.1,0-1.9,0.3-2.5,1s-0.8,1.5-0.8,2.6
			c0,1.1,0.3,2,0.9,2.6C250.3,148.4,251.1,148.7,252.2,148.7z"/>
		<path class="st0" d="M263.6,151.1l-2-1.7l6.6-6.6c0.4-0.4,0.8-0.8,1.1-1.1c0.3-0.3,0.7-0.6,1.2-0.9v-0.2c-0.5-0.3-1-0.6-1.3-1
			c-0.4-0.3-0.8-0.6-1.1-0.9l-6.2-5.4v-2l12.3-3.6l0.6,2.4l-5.6,1.6c-0.7,0.2-1.4,0.4-2,0.5c-0.6,0.1-1.2,0.3-2,0.4v0.2
			c0.7,0.4,1.2,0.8,1.7,1.2c0.5,0.4,1,0.8,1.5,1.3l5,4.3v1.7L263.6,151.1z"/>
		<path class="st0" d="M277.7,140.8v-2.5h14.6v2.5H277.7z M285,136.3c-1.6,0-2.8-0.4-3.7-1.1c-0.9-0.8-1.3-1.8-1.3-3
			c0-1.3,0.4-2.3,1.3-3.1c0.9-0.8,2.1-1.1,3.7-1.1c1.6,0,2.8,0.4,3.7,1.1c0.9,0.8,1.3,1.8,1.3,3.1c0,1.3-0.4,2.3-1.3,3
			C287.8,135.9,286.6,136.3,285,136.3z M285,151.1c-1.6,0-2.8-0.4-3.7-1.1c-0.9-0.8-1.3-1.8-1.3-3c0-1.3,0.4-2.3,1.3-3.1
			c0.9-0.8,2.1-1.1,3.7-1.1c1.6,0,2.8,0.4,3.7,1.1c0.9,0.8,1.3,1.8,1.3,3.1c0,1.3-0.4,2.3-1.3,3C287.8,150.8,286.6,151.1,285,151.1z
			 M285,133.9c0.7,0,1.3-0.2,1.6-0.5c0.4-0.3,0.5-0.8,0.5-1.3s-0.2-1-0.5-1.3c-0.4-0.3-0.9-0.5-1.6-0.5c-0.7,0-1.3,0.2-1.6,0.5
			c-0.4,0.3-0.5,0.8-0.5,1.3s0.2,1,0.5,1.3C283.7,133.7,284.3,133.9,285,133.9z M285,148.8c0.7,0,1.3-0.2,1.6-0.5
			c0.4-0.3,0.5-0.8,0.5-1.3s-0.2-1-0.5-1.3c-0.4-0.3-0.9-0.5-1.6-0.5c-0.7,0-1.3,0.2-1.6,0.5c-0.4,0.3-0.5,0.8-0.5,1.3
			s0.2,1,0.6,1.3C283.8,148.6,284.3,148.8,285,148.8z"/>
		<path class="st0" d="M306.2,151.1c-2.2,0-4-0.5-5.6-1.5c-1.6-1-2.7-2.3-3.6-4.1c-0.8-1.7-1.3-3.8-1.3-6.1c0-2.3,0.4-4.4,1.3-6.1
			c0.8-1.8,2-3.1,3.6-4.1c1.6-1,3.4-1.5,5.6-1.5s4,0.5,5.6,1.5c1.6,1,2.8,2.3,3.6,4.1c0.8,1.8,1.3,3.8,1.3,6.1
			c0,2.3-0.4,4.4-1.3,6.1c-0.8,1.7-2,3.1-3.6,4.1C310.3,150.7,308.4,151.1,306.2,151.1z M306.2,148.6c2.4,0,4.3-0.8,5.5-2.4
			c1.3-1.6,1.9-3.8,1.9-6.7c0-2.8-0.6-5.1-1.9-6.7c-1.3-1.6-3.1-2.4-5.6-2.4c-2.4,0-4.3,0.8-5.5,2.4c-1.3,1.6-1.9,3.8-1.9,6.7
			c0,2.9,0.6,5.1,1.9,6.7C301.9,147.8,303.8,148.6,306.2,148.6z"/>
	</g>
</g>
<g>
	<g>
		<path class="st1" d="M465.6,107.9c3.6-3.2,6.9-6.6,9.6-10.6c2.3-3.4,4.1-7,4.7-11.1c0.9-5.5-0.6-10.5-3.8-14.9
			c-2.7-3.7-6.1-6.7-9.9-9.2c-7-4.7-14.7-8.1-22.6-10.9c-12.2-4.3-24.8-7.4-37.4-9.9c-11.9-2.4-23.8-4.2-35.8-5.8
			c-10-1.3-20-2.4-30-3.3c-0.2,0-0.4,0-0.6-0.3c0.9-0.4,1.7-0.8,2.6-1.2c15.4-6.8,31.1-12.5,47.5-16.5c9.9-2.4,19.9-4.2,30.1-5
			c10.4-0.8,20.9-0.6,31.2,1.3c10.5,2,20.4,5.5,29,12.1c8.3,6.4,14,14.5,16.1,24.9c1.7,8.2,0.8,16.1-1.9,24
			c-3.1,9-8.2,16.8-14.5,23.8c-4.2,4.7-8.9,8.9-14,12.7C465.6,108.2,465.6,108.1,465.6,107.9z"/>
		<path class="st0" d="M459.1,113.7c-10.4,6.8-21.2,12.8-32.6,17.7c-4.6,2-9.4,3.7-14.2,5.1v-9.1c0-0.5,0-1.5-0.9-2.2
			c-0.6-0.4-1.3-0.5-2.3-0.2c-6.1,1.8-12.2,3.7-18.4,5.6c-1.5,0.4-2.3,1.5-2.3,3.1c0.1,2.1,0.1,4.3,0.1,6.5
			c-4.6-0.1-9.2-0.6-13.6-2.1c-12.2-4.2-19.6-12.6-22.1-25.3c-1.5-7.7-0.6-15.3,1.7-22.9c2.8-9.1,7.6-17.2,13.9-24.4
			c0.6-0.6,1.1-1.3,1.8-1.9c0.1,0.5-0.1,0.8-0.3,1.1c-1.6,3.9-2.8,8-3,12.3c-0.3,7.5,2.9,13.2,9.1,17.3c3.9,2.6,8.3,4.2,12.8,5.4
			c6,1.6,12.1,2.5,18.3,3.1c7.3,0.8,14.6,1.1,22,1.5c6.3,0.4,12.7,0.7,19.1,1.7c3,0.5,6,1.1,8.8,2.5c1.1,0.6,2,1.4,2.7,2.5
			C460.5,112.4,460.3,112.9,459.1,113.7z"/>
		<path class="st1" d="M442,145.2c0-4.7,0-9.5,0-14.2c0-0.7,0.2-0.9,0.8-1.1c5.8-1.7,11.6-3.5,17.4-5.3c0.7-0.2,0.9-0.1,0.9,0.7
			c0,2,0,3.9,0,5.9c0,0.8,0.4,1.3,1,1.7c1.7,0.9,4.9,0.1,4.8-2.8c-0.1-2.2,0-4.5,0-6.7c0-0.5,0.2-0.8,0.7-0.9
			c5.6-1.7,11.3-3.4,16.9-5.2c0.5-0.2,0.7-0.1,0.7,0.5c0,3.5,0,7,0,10.6c0,1.7-0.9,3-2.1,4.1c-1.3,1.2-2.9,2-4.6,2.5
			c-5.4,1.7-10.8,3.3-16.3,4.9c-0.7,0.2-0.9,0.5-0.9,1.2c0,5,0,9.9,0,14.9c0,3.9-1.6,6.1-5.4,7.2c-9.2,2.8-18.5,5.6-27.7,8.4
			c-2.3,0.7-4.6,1.4-6.9,2.1c-0.5,0.2-1.1,0.3-1.7,0.3c-2,0-3.1-1-3.1-3c0-3.4,0-6.8,0-10.2c0-0.6,0.2-0.9,0.8-1.1
			c5.8-1.7,11.5-3.5,17.2-5.2c0.7-0.2,0.8,0,0.8,0.6c0,1.9,0,3.7,0,5.6c0,0.9,0.4,1.3,1.2,1.5c1.1,0.3,2.1,0.2,3.1-0.2
			c1.7-0.5,2.2-1.3,2.2-3C442,154.4,442,149.8,442,145.2z"/>
		<g>
			<g>
				<path class="st1" d="M390.1,154.9c0.2-0.4,0.1-0.8,0.1-1.3c0-6.7,0-13.4,0-20.1c0-0.8,0.3-1.2,1.1-1.4
					c6.1-1.8,12.3-3.7,18.4-5.6c0.8-0.2,0.8,0.1,0.8,0.7c0,6.4,0,12.9,0,19.3c0,0.4-0.1,0.8,0.1,1.2c0.1,0.4,0.4,0.5,0.7,0.7
					c1.1,0.3,3.1-0.3,3.9-1.3c0.3-0.4,0.4-0.9,0.4-1.4c0-2.3,0-4.5,0-6.8c0-0.6,0.1-0.9,0.8-1.1c6.1-1.8,12.2-3.7,18.3-5.6
					c0.8-0.2,0.9,0,0.9,0.7c0,3.7,0,7.4,0,11.2c0,2.5-1.1,4-3.5,4.8c-3,1-6,1.9-9,2.8c-17,5.2-33.9,10.3-50.9,15.5
					c-1.8,0.5-3.6,0.4-5.3-0.4c-1.2-0.6-1.9-1.6-1.9-3.1c0-3.1,0-6.2,0-9.4c0-0.6,0.2-0.9,0.8-1.1c6.1-1.8,12.3-3.7,18.4-5.6
					c0.7-0.2,0.9,0,0.9,0.7c0,2.4,0,4.7,0,7.1c0,0.7,0.3,1.1,1,1.2c1.2,0.2,2.3,0.1,3.4-0.6C389.7,155.9,390,155.5,390.1,154.9z"/>
			</g>
		</g>
		<path class="st1" d="M398.4,169.2c0,0.8,0,1.6,0,2.4c0,0.5-0.1,0.7-0.6,0.9c-3.9,1.2-7.7,2.3-11.6,3.5c-0.5,0.2-0.7,0.1-0.7-0.5
			c0-1.6,0-3.2,0-4.8c0-0.5,0.2-0.7,0.7-0.8c3.8-1.2,7.7-2.3,11.5-3.5c0.5-0.2,0.8-0.1,0.7,0.5C398.4,167.7,398.4,168.4,398.4,169.2
			z"/>
		<path class="st1" d="M413.4,164.1c0,0.7,0,1.5,0,2.2c0,0.6-0.1,0.8-0.7,1c-3.8,1.1-7.5,2.3-11.3,3.4c-0.8,0.2-0.9,0-0.9-0.7
			c0-1.5,0-2.9,0-4.4c0-0.6,0.2-0.8,0.8-1c3.8-1.1,7.5-2.3,11.3-3.4c0.8-0.2,0.9,0,0.9,0.7C413.3,162.6,413.4,163.4,413.4,164.1z"/>
		<path class="st1" d="M466.9,149.3c0.1-0.8-0.4-1.9,0.2-2.5c0.5-0.6,1.6-0.6,2.4-0.9c3-0.9,6-1.8,9-2.7c1-0.3,1-0.3,1,0.8
			c0,1.3,0,2.6,0,3.9c0,0.5-0.2,0.7-0.6,0.8c-3.8,1.1-7.5,2.3-11.3,3.4c-0.6,0.2-0.7,0-0.7-0.6C466.9,150.8,466.9,150.1,466.9,149.3
			z"/>
		<path class="st0" d="M465.6,107.9c0.1,0.1,0.1,0.1,0.2,0.2c-0.4,0.5-1,0.8-1.6,1.1C464.6,108.7,465.1,108.3,465.6,107.9z"/>
	</g>
	<g id="g17">
		<path id="path19" class="st1" d="M357.4,195.1l3.2-9.2h1.5l3.2,9.2h-1.3l-0.8-2.6h-3.6l-0.8,2.6H357.4z M362.7,191.5l-1.4-4.4
			l-1.4,4.4H362.7z"/>
		<path id="path21" class="st1" d="M374.5,195.1h-5.4v-9.2h1.2v8.1h4.2L374.5,195.1L374.5,195.1z"/>
		<path id="path23" class="st1" d="M381.4,195.3c-0.7,0-1.3-0.1-1.8-0.3c-0.5-0.2-1-0.5-1.4-0.9c-0.4-0.4-0.7-0.9-0.9-1.5
			c-0.2-0.6-0.3-1.3-0.3-2.1c0-0.7,0.1-1.4,0.3-2c0.2-0.6,0.5-1.1,0.9-1.5c0.4-0.4,0.9-0.7,1.4-0.9c0.6-0.2,1.2-0.3,1.8-0.3
			c0.3,0,0.6,0,0.9,0.1c0.3,0,0.6,0.1,0.8,0.2c0.2,0.1,0.4,0.1,0.7,0.3c0.3,0.1,0.5,0.2,0.6,0.3v1.5h-0.1c-0.2-0.1-0.3-0.3-0.5-0.4
			c-0.2-0.1-0.4-0.3-0.7-0.4c-0.3-0.1-0.5-0.2-0.9-0.3c-0.3-0.1-0.7-0.1-1.1-0.1c-0.9,0-1.6,0.3-2.2,1s-0.8,1.6-0.8,2.7
			c0,0.6,0.1,1.2,0.2,1.6c0.1,0.5,0.4,0.9,0.6,1.2c0.3,0.3,0.6,0.6,1,0.7c0.4,0.2,0.8,0.3,1.3,0.3c0.4,0,0.7,0,1.1-0.1
			c0.3,0,0.6-0.1,0.9-0.2v-2.4h-2.2v-1.1h3.4v4c-0.2,0.1-0.4,0.2-0.6,0.3c-0.3,0.1-0.5,0.2-0.7,0.3c-0.3,0.1-0.6,0.2-0.8,0.2
			S381.8,195.3,381.4,195.3z"/>
		<path id="path25" class="st1" d="M389.4,195.1v-9.2h5.9v1.1h-4.6v2.5h4.3v1.1h-4.3v3.4h4.6v1.1L389.4,195.1L389.4,195.1z"/>
		<path id="path27" class="st1" d="M405.2,195.1h-1.6l-3-3.7h-1.4v3.7h-1.2v-9.2h2.4c0.5,0,1,0,1.3,0.1c0.4,0.1,0.7,0.2,1,0.4
			c0.3,0.2,0.6,0.5,0.8,0.8c0.2,0.3,0.3,0.7,0.3,1.2c0,0.7-0.2,1.2-0.5,1.7c-0.3,0.5-0.8,0.8-1.4,1L405.2,195.1z M402.5,188.5
			c0-0.3,0-0.5-0.1-0.7c-0.1-0.2-0.2-0.4-0.4-0.5c-0.2-0.1-0.4-0.2-0.6-0.2c-0.2,0-0.5-0.1-0.9-0.1h-1.2v3.5h1.1c0.4,0,0.7,0,1-0.1
			s0.5-0.2,0.7-0.4c0.2-0.2,0.3-0.4,0.4-0.6C402.4,189.1,402.5,188.8,402.5,188.5z"/>
		<path id="path29" class="st1" d="M409.1,195.1h-1.2v-0.9l0,0v-7.4l0,0l0-0.9h1.3l0,0.9l0,0v7.4l0,0L409.1,195.1z"/>
		<path id="path31" class="st1" d="M413.4,195.1v-9.2h5.9v1.1h-4.6v2.5h4.3v1.1h-4.3v3.4h4.6v1.1L413.4,195.1L413.4,195.1z"/>
	</g>
	<g id="g33">
		<path id="path35" class="st1" d="M436.2,188.1c0,0.5-0.1,0.9-0.3,1.3c-0.2,0.4-0.4,0.8-0.8,1c-0.2,0.2-0.4,0.3-0.7,0.5
			c-0.2,0.1-0.5,0.3-0.8,0.4c-0.3,0.1-0.6,0.2-1,0.2c-0.3,0.1-0.7,0.1-1.2,0.1h-1.6v3.2h-3V185h4.7c0.7,0,1.3,0.1,1.8,0.2
			s1,0.3,1.4,0.5c0.5,0.2,0.8,0.6,1.1,1C436.1,187.1,436.2,187.6,436.2,188.1z M433.1,188.2c0-0.3-0.1-0.5-0.2-0.7
			c-0.2-0.2-0.4-0.3-0.6-0.4c-0.3-0.1-0.6-0.2-0.8-0.2c-0.3,0-0.6,0-1.1,0h-0.4v3h0.2c0.3,0,0.6,0,0.8,0c0.3,0,0.5,0,0.7,0
			c0.2,0,0.3-0.1,0.5-0.1s0.3-0.1,0.4-0.2c0.2-0.2,0.3-0.3,0.4-0.5C433,188.7,433.1,188.5,433.1,188.2z"/>
		<path id="path37" class="st1" d="M449.7,190c0,1.6-0.5,2.9-1.6,3.8c-1,0.9-2.5,1.4-4.3,1.4c-1.8,0-3.2-0.5-4.3-1.4
			c-1-0.9-1.6-2.2-1.6-3.8c0-1.6,0.5-2.8,1.6-3.8c1-0.9,2.5-1.4,4.3-1.4c1.8,0,3.2,0.5,4.3,1.4C449.2,187.1,449.7,188.4,449.7,190z
			 M446.6,190c0-0.6-0.1-1.1-0.2-1.5c-0.1-0.4-0.3-0.8-0.6-1c-0.3-0.3-0.6-0.5-0.9-0.6c-0.3-0.1-0.7-0.2-1-0.2c-0.4,0-0.7,0.1-1,0.2
			c-0.3,0.1-0.6,0.3-0.9,0.6c-0.2,0.3-0.4,0.6-0.6,1c-0.2,0.4-0.2,0.9-0.2,1.5c0,0.6,0.1,1.1,0.2,1.5c0.1,0.4,0.3,0.7,0.6,1
			c0.3,0.3,0.6,0.5,0.9,0.6c0.3,0.1,0.7,0.2,1,0.2c0.4,0,0.7-0.1,1-0.2c0.3-0.1,0.6-0.3,0.9-0.6c0.3-0.3,0.5-0.6,0.6-1
			C446.5,191.1,446.6,190.6,446.6,190z"/>
		<path id="path39" class="st1" d="M456.2,195.1c-0.9,0-1.7-0.1-2.4-0.2c-0.7-0.1-1.3-0.3-1.9-0.5V192h0.3c0.6,0.4,1.3,0.7,2,1
			c0.7,0.2,1.4,0.3,2.1,0.3c0.2,0,0.4,0,0.7,0c0.3,0,0.5-0.1,0.7-0.1c0.2-0.1,0.4-0.2,0.5-0.3s0.2-0.3,0.2-0.5
			c0-0.2-0.1-0.5-0.4-0.6c-0.2-0.2-0.5-0.3-0.8-0.3c-0.4-0.1-0.8-0.2-1.3-0.3c-0.5-0.1-0.9-0.2-1.3-0.3c-0.9-0.3-1.6-0.6-2-1.1
			c-0.4-0.5-0.6-1-0.6-1.7c0-0.9,0.5-1.7,1.4-2.3c1-0.6,2.1-0.9,3.6-0.9c0.7,0,1.4,0.1,2.1,0.2c0.7,0.1,1.3,0.3,1.9,0.5v2.3h-0.3
			c-0.4-0.3-1-0.6-1.6-0.8c-0.6-0.2-1.3-0.3-2-0.3c-0.3,0-0.5,0-0.7,0c-0.2,0-0.4,0.1-0.7,0.2c-0.2,0.1-0.4,0.2-0.5,0.3
			c-0.1,0.1-0.2,0.3-0.2,0.5c0,0.3,0.1,0.5,0.3,0.6c0.2,0.1,0.6,0.3,1.3,0.4c0.4,0.1,0.8,0.1,1.2,0.2c0.4,0.1,0.8,0.2,1.2,0.3
			c0.8,0.2,1.5,0.6,1.9,1c0.4,0.4,0.6,1,0.6,1.7c0,1-0.5,1.8-1.4,2.4C459.1,194.8,457.8,195.1,456.2,195.1z"/>
		<path id="path41" class="st1" d="M466.2,194.9v-8h-3.6V185h10.1v1.9h-3.6v8H466.2z"/>
		<path id="path43" class="st1" d="M475,194.9V185h8.1v1.9H478v1.7h4.7v1.9H478v2.5h5.1v1.9L475,194.9L475,194.9z"/>
	</g>
</g>
</svg>
